<?xml version="1.0" standalone="no"?><!DOCTYPE svg PUBLIC "-//W3C//DTD SVG 1.1//EN" "http://www.w3.org/Graphics/SVG/1.1/DTD/svg11.dtd"><svg t="1508749790784" class="icon" style="" viewBox="0 0 1024 1024" version="1.1" xmlns="http://www.w3.org/2000/svg" p-id="777" xmlns:xlink="http://www.w3.org/1999/xlink" width="64" height="64"><defs><style type="text/css"></style></defs><path d="M776.53504 147.62496l-142.848 137.90208c-4.608 4.608-11.95008 4.608-16.55808 0-4.608-4.608-4.608-12.11904 0-16.72704L753.152 135.84896c16.04096-16.384 30.208 0.68608 23.38304 11.776zM758.784 290.13504h-134.31296c-6.48704 0-11.776-5.29408-11.776-11.95008v-133.12c0-6.48192 5.28896-9.38496 11.776-9.38496 6.48192 0 13.99296 2.72896 13.99296 9.38496v119.47008h120.48896c6.48704 0 9.39008 6.48192 8.53504 17.06496 0 1.19296-2.21696 8.53504-8.704 8.53504z m-316.75904 614.4H382.29504v-128h59.72992v128z m-128-196.27008H373.76v-25.6h68.26496v68.27008H245.76v-68.27008h68.26496v25.6z m8.53504-128h42.66496v25.6h76.8v51.2H373.76v-25.6H314.02496v25.6H245.76v-51.2h76.8v-25.6z m139.94496-315.72992C422.912 264.53504 390.656 232.10496 390.656 192c0.16896-40.10496 32.256-72.53504 71.84896-72.53504 39.59808 0 73.216 29.52704 73.216 69.46304 0.17408 40.10496-33.61792 75.60704-73.216 75.60704z m98.99008 366.92992V384h-25.6v520.53504H476.16v-307.2l-85.33504-42.67008V384h-25.6v162.13504H322.56V358.4s15.872-34.64704 34.13504-51.2c22.016-19.968 51.2-25.6 51.2-25.6H527.36s23.89504 4.608 51.2 25.6c11.776 9.04704 25.6 50.85696 25.6 50.85696v273.408h-42.66496z" fill="#1296db" p-id="778"></path></svg>